<?xml version="1.0" encoding="UTF-8" standalone="no"?>
<!DOCTYPE svg PUBLIC "-//W3C//DTD SVG 1.1//EN"
 "http://www.w3.org/Graphics/SVG/1.1/DTD/svg11.dtd">
<!-- Generated by graphviz version 2.40.1 (20161225.0304)
 -->
<!-- Title: dependencies Pages: 1 -->
<svg width="739pt" height="284pt"
 viewBox="0.00 0.00 739.00 284.00" xmlns="http://www.w3.org/2000/svg" xmlns:xlink="http://www.w3.org/1999/xlink">
<g id="graph0" class="graph" transform="scale(1 1) rotate(0) translate(4 280)">
<title>dependencies</title>
<polygon fill="#ffffff" stroke="transparent" points="-4,4 -4,-280 735,-280 735,4 -4,4"/>
<text text-anchor="start" x="344.5091" y="-42.4" font-family="sans-serif" font-weight="bold" font-size="14.00" fill="#000000">Legend</text>
<polygon fill="#ffffb3" stroke="transparent" points="131.5,-10 131.5,-30 151.5,-30 151.5,-10 131.5,-10"/>
<text text-anchor="start" x="155.129" y="-15.4" font-family="sans-serif" font-size="14.00" fill="#000000"> &#160;Declarations</text>
<polygon fill="#8dd3c7" stroke="transparent" points="244.5,-10 244.5,-30 264.5,-30 264.5,-10 244.5,-10"/>
<text text-anchor="start" x="268.2251" y="-15.4" font-family="sans-serif" font-size="14.00" fill="#000000"> &#160;Module</text>
<polygon fill="#80b1d3" stroke="transparent" points="330.5,-10 330.5,-30 350.5,-30 350.5,-10 330.5,-10"/>
<text text-anchor="start" x="354.2812" y="-15.4" font-family="sans-serif" font-size="14.00" fill="#000000"> &#160;Bootstrap</text>
<polygon fill="#fdb462" stroke="transparent" points="427.5,-10 427.5,-30 447.5,-30 447.5,-10 427.5,-10"/>
<text text-anchor="start" x="451.1732" y="-15.4" font-family="sans-serif" font-size="14.00" fill="#000000"> &#160;Providers</text>
<polygon fill="#fb8072" stroke="transparent" points="523.5,-10 523.5,-30 543.5,-30 543.5,-10 523.5,-10"/>
<text text-anchor="start" x="547.2258" y="-15.4" font-family="sans-serif" font-size="14.00" fill="#000000"> &#160;Exports</text>
<g id="clust1" class="cluster">
<title>cluster_BuildMotionSecurityModule</title>
<polygon fill="none" stroke="#000000" stroke-dasharray="1,5" points="8,-70 8,-268 723,-268 723,-70 8,-70"/>
</g>
<g id="clust2" class="cluster">
<title>cluster_BuildMotionSecurityModule_declarations</title>
<polygon fill="none" stroke="#000000" points="511,-78 511,-130 715,-130 715,-78 511,-78"/>
</g>
<g id="clust5" class="cluster">
<title>cluster_BuildMotionSecurityModule_exports</title>
<polygon fill="none" stroke="#000000" points="304,-208 304,-260 512,-260 512,-208 304,-208"/>
</g>
<g id="clust7" class="cluster">
<title>cluster_BuildMotionSecurityModule_providers</title>
<polygon fill="none" stroke="#000000" points="16,-78 16,-130 503,-130 503,-78 16,-78"/>
</g>
<!-- RegisterSubscriberComponent -->
<g id="node1" class="node">
<title>RegisterSubscriberComponent</title>
<polygon fill="#ffffb3" stroke="#000000" points="706.8529,-122 519.1471,-122 519.1471,-86 706.8529,-86 706.8529,-122"/>
<text text-anchor="middle" x="613" y="-99.8" font-family="Times,serif" font-size="14.00" fill="#000000">RegisterSubscriberComponent</text>
</g>
<!-- BuildMotionSecurityModule -->
<g id="node2" class="node">
<title>BuildMotionSecurityModule</title>
<polygon fill="#8dd3c7" stroke="#000000" points="497.0476,-187 494.0476,-191 473.0476,-191 470.0476,-187 318.9524,-187 318.9524,-151 497.0476,-151 497.0476,-187"/>
<text text-anchor="middle" x="408" y="-164.8" font-family="Times,serif" font-size="14.00" fill="#000000">BuildMotionSecurityModule</text>
</g>
<!-- RegisterSubscriberComponent&#45;&gt;BuildMotionSecurityModule -->
<g id="edge1" class="edge">
<title>RegisterSubscriberComponent&#45;&gt;BuildMotionSecurityModule</title>
<path fill="none" stroke="#000000" d="M613,-122.1061C613,-141.3391 613,-169 613,-169 613,-169 507.3196,-169 507.3196,-169"/>
<polygon fill="#000000" stroke="#000000" points="507.3197,-165.5001 497.3196,-169 507.3196,-172.5001 507.3197,-165.5001"/>
</g>
<!-- RegisterSubscriberComponent  -->
<g id="node3" class="node">
<title>RegisterSubscriberComponent </title>
<polygon fill="#fb8072" stroke="#000000" points="503.8531,-252 312.1469,-252 312.1469,-216 503.8531,-216 503.8531,-252"/>
<text text-anchor="middle" x="408" y="-229.8" font-family="Times,serif" font-size="14.00" fill="#000000">RegisterSubscriberComponent </text>
</g>
<!-- BuildMotionSecurityModule&#45;&gt;RegisterSubscriberComponent  -->
<g id="edge2" class="edge">
<title>BuildMotionSecurityModule&#45;&gt;RegisterSubscriberComponent </title>
<path fill="none" stroke="#000000" stroke-dasharray="5,2" d="M408,-187.1061C408,-187.1061 408,-205.991 408,-205.991"/>
<polygon fill="#000000" stroke="#000000" points="404.5001,-205.9909 408,-215.991 411.5001,-205.991 404.5001,-205.9909"/>
</g>
<!-- SecurityApiService -->
<g id="node4" class="node">
<title>SecurityApiService</title>
<ellipse fill="#fdb462" stroke="#000000" cx="408" cy="-104" rx="86.8126" ry="18"/>
<text text-anchor="middle" x="408" y="-99.8" font-family="Times,serif" font-size="14.00" fill="#000000">SecurityApiService</text>
</g>
<!-- SecurityApiService&#45;&gt;BuildMotionSecurityModule -->
<g id="edge3" class="edge">
<title>SecurityApiService&#45;&gt;BuildMotionSecurityModule</title>
<path fill="none" stroke="#000000" d="M408,-122.1061C408,-122.1061 408,-140.991 408,-140.991"/>
<polygon fill="#000000" stroke="#000000" points="404.5001,-140.9909 408,-150.991 411.5001,-140.991 404.5001,-140.9909"/>
</g>
<!-- SecurityBusinessProviderService -->
<g id="node5" class="node">
<title>SecurityBusinessProviderService</title>
<ellipse fill="#fdb462" stroke="#000000" cx="164" cy="-104" rx="139.5218" ry="18"/>
<text text-anchor="middle" x="164" y="-99.8" font-family="Times,serif" font-size="14.00" fill="#000000">SecurityBusinessProviderService</text>
</g>
<!-- SecurityBusinessProviderService&#45;&gt;BuildMotionSecurityModule -->
<g id="edge4" class="edge">
<title>SecurityBusinessProviderService&#45;&gt;BuildMotionSecurityModule</title>
<path fill="none" stroke="#000000" d="M164,-122.1061C164,-141.3391 164,-169 164,-169 164,-169 308.8747,-169 308.8747,-169"/>
<polygon fill="#000000" stroke="#000000" points="308.8747,-172.5001 318.8747,-169 308.8746,-165.5001 308.8747,-172.5001"/>
</g>
</g>
</svg>
